<svg xmlns="http://www.w3.org/2000/svg" version="1.1" xmlns:xlink="http://www.w3.org/1999/xlink" xmlns:svgjs="http://svgjs.dev/svgjs" viewBox="0 0 800 800" opacity="1"><defs><linearGradient x1="50%" y1="0%" x2="50%" y2="100%" id="vvvortex-grad"><stop stop-color="hsl(1.4, 100%, 67%)" stop-opacity="1" offset="0%"></stop><stop stop-color="hsl(167, 2%, 62%)" stop-opacity="1" offset="100%"></stop></linearGradient></defs><g stroke="url(#vvvortex-grad)" fill="none" stroke-linecap="square"><circle r="792" cx="400" cy="400" stroke-width="15" stroke-dasharray="36 46" stroke-dashoffset="25" transform="rotate(285, 400, 400)" opacity="0.05"></circle><circle r="775.5" cx="400" cy="400" stroke-width="14" stroke-dasharray="16 36" stroke-dashoffset="25" transform="rotate(289, 400, 400)" opacity="0.07"></circle><circle r="759" cx="400" cy="400" stroke-width="14" stroke-dasharray="40 46" stroke-dashoffset="25" transform="rotate(344, 400, 400)" opacity="0.09"></circle><circle r="742.5" cx="400" cy="400" stroke-width="14" stroke-dasharray="53 42" stroke-dashoffset="25" transform="rotate(237, 400, 400)" opacity="0.11"></circle><circle r="726" cx="400" cy="400" stroke-width="14" stroke-dasharray="50 37" stroke-dashoffset="25" transform="rotate(176, 400, 400)" opacity="0.13"></circle><circle r="709.5" cx="400" cy="400" stroke-width="14" stroke-dasharray="32 34" stroke-dashoffset="25" transform="rotate(231, 400, 400)" opacity="0.15"></circle><circle r="693" cx="400" cy="400" stroke-width="14" stroke-dasharray="16 17" stroke-dashoffset="25" transform="rotate(304, 400, 400)" opacity="0.17"></circle><circle r="676.5" cx="400" cy="400" stroke-width="14" stroke-dasharray="18 31" stroke-dashoffset="25" transform="rotate(329, 400, 400)" opacity="0.19"></circle><circle r="660" cx="400" cy="400" stroke-width="13" stroke-dasharray="14 42" stroke-dashoffset="25" transform="rotate(257, 400, 400)" opacity="0.21"></circle><circle r="643.5" cx="400" cy="400" stroke-width="13" stroke-dasharray="35 45" stroke-dashoffset="25" transform="rotate(109, 400, 400)" opacity="0.23"></circle><circle r="627" cx="400" cy="400" stroke-width="13" stroke-dasharray="49 46" stroke-dashoffset="25" transform="rotate(276, 400, 400)" opacity="0.25"></circle><circle r="610.5" cx="400" cy="400" stroke-width="13" stroke-dasharray="13 26" stroke-dashoffset="25" transform="rotate(255, 400, 400)" opacity="0.27"></circle><circle r="594" cx="400" cy="400" stroke-width="13" stroke-dasharray="53 53" stroke-dashoffset="25" transform="rotate(329, 400, 400)" opacity="0.29"></circle><circle r="577.5" cx="400" cy="400" stroke-width="13" stroke-dasharray="46 43" stroke-dashoffset="25" transform="rotate(197, 400, 400)" opacity="0.31"></circle><circle r="561" cx="400" cy="400" stroke-width="13" stroke-dasharray="50 29" stroke-dashoffset="25" transform="rotate(28, 400, 400)" opacity="0.33"></circle><circle r="544.5" cx="400" cy="400" stroke-width="13" stroke-dasharray="13 30" stroke-dashoffset="25" transform="rotate(249, 400, 400)" opacity="0.35"></circle><circle r="528" cx="400" cy="400" stroke-width="12" stroke-dasharray="42 23" stroke-dashoffset="25" transform="rotate(25, 400, 400)" opacity="0.37"></circle><circle r="511.5" cx="400" cy="400" stroke-width="12" stroke-dasharray="26 42" stroke-dashoffset="25" transform="rotate(127, 400, 400)" opacity="0.39"></circle><circle r="495" cx="400" cy="400" stroke-width="12" stroke-dasharray="31 53" stroke-dashoffset="25" transform="rotate(262, 400, 400)" opacity="0.41"></circle><circle r="478.5" cx="400" cy="400" stroke-width="12" stroke-dasharray="15 11" stroke-dashoffset="25" transform="rotate(105, 400, 400)" opacity="0.43"></circle><circle r="462" cx="400" cy="400" stroke-width="12" stroke-dasharray="13 27" stroke-dashoffset="25" transform="rotate(198, 400, 400)" opacity="0.45"></circle><circle r="445.5" cx="400" cy="400" stroke-width="12" stroke-dasharray="19 23" stroke-dashoffset="25" transform="rotate(198, 400, 400)" opacity="0.47"></circle><circle r="429" cx="400" cy="400" stroke-width="12" stroke-dasharray="42 21" stroke-dashoffset="25" transform="rotate(153, 400, 400)" opacity="0.49"></circle><circle r="412.5" cx="400" cy="400" stroke-width="12" stroke-dasharray="11 49" stroke-dashoffset="25" transform="rotate(290, 400, 400)" opacity="0.51"></circle><circle r="396" cx="400" cy="400" stroke-width="11" stroke-dasharray="28 22" stroke-dashoffset="25" transform="rotate(265, 400, 400)" opacity="0.54"></circle><circle r="379.5" cx="400" cy="400" stroke-width="11" stroke-dasharray="48 48" stroke-dashoffset="25" transform="rotate(352, 400, 400)" opacity="0.56"></circle><circle r="363" cx="400" cy="400" stroke-width="11" stroke-dasharray="20 47" stroke-dashoffset="25" transform="rotate(303, 400, 400)" opacity="0.58"></circle><circle r="346.5" cx="400" cy="400" stroke-width="11" stroke-dasharray="25 50" stroke-dashoffset="25" transform="rotate(177, 400, 400)" opacity="0.60"></circle><circle r="330" cx="400" cy="400" stroke-width="11" stroke-dasharray="15 36" stroke-dashoffset="25" transform="rotate(271, 400, 400)" opacity="0.62"></circle><circle r="313.5" cx="400" cy="400" stroke-width="11" stroke-dasharray="48 29" stroke-dashoffset="25" transform="rotate(256, 400, 400)" opacity="0.64"></circle><circle r="297" cx="400" cy="400" stroke-width="11" stroke-dasharray="51 36" stroke-dashoffset="25" transform="rotate(324, 400, 400)" opacity="0.66"></circle><circle r="280.5" cx="400" cy="400" stroke-width="11" stroke-dasharray="15 11" stroke-dashoffset="25" transform="rotate(348, 400, 400)" opacity="0.68"></circle><circle r="264" cx="400" cy="400" stroke-width="10" stroke-dasharray="40 32" stroke-dashoffset="25" transform="rotate(286, 400, 400)" opacity="0.70"></circle><circle r="247.5" cx="400" cy="400" stroke-width="10" stroke-dasharray="49 52" stroke-dashoffset="25" transform="rotate(296, 400, 400)" opacity="0.72"></circle><circle r="231" cx="400" cy="400" stroke-width="10" stroke-dasharray="10 45" stroke-dashoffset="25" transform="rotate(56, 400, 400)" opacity="0.74"></circle><circle r="214.5" cx="400" cy="400" stroke-width="10" stroke-dasharray="11 43" stroke-dashoffset="25" transform="rotate(124, 400, 400)" opacity="0.76"></circle><circle r="198" cx="400" cy="400" stroke-width="10" stroke-dasharray="29 40" stroke-dashoffset="25" transform="rotate(332, 400, 400)" opacity="0.78"></circle><circle r="181.5" cx="400" cy="400" stroke-width="10" stroke-dasharray="46 26" stroke-dashoffset="25" transform="rotate(266, 400, 400)" opacity="0.80"></circle><circle r="165" cx="400" cy="400" stroke-width="10" stroke-dasharray="49 21" stroke-dashoffset="25" transform="rotate(38, 400, 400)" opacity="0.82"></circle><circle r="148.5" cx="400" cy="400" stroke-width="10" stroke-dasharray="51 31" stroke-dashoffset="25" transform="rotate(269, 400, 400)" opacity="0.84"></circle><circle r="132" cx="400" cy="400" stroke-width="9" stroke-dasharray="54 24" stroke-dashoffset="25" transform="rotate(5, 400, 400)" opacity="0.86"></circle><circle r="115.5" cx="400" cy="400" stroke-width="9" stroke-dasharray="50 35" stroke-dashoffset="25" transform="rotate(140, 400, 400)" opacity="0.88"></circle><circle r="99" cx="400" cy="400" stroke-width="9" stroke-dasharray="20 28" stroke-dashoffset="25" transform="rotate(296, 400, 400)" opacity="0.90"></circle><circle r="82.5" cx="400" cy="400" stroke-width="9" stroke-dasharray="29 34" stroke-dashoffset="25" transform="rotate(146, 400, 400)" opacity="0.92"></circle><circle r="66" cx="400" cy="400" stroke-width="9" stroke-dasharray="35 25" stroke-dashoffset="25" transform="rotate(308, 400, 400)" opacity="0.94"></circle><circle r="49.5" cx="400" cy="400" stroke-width="9" stroke-dasharray="26 15" stroke-dashoffset="25" transform="rotate(141, 400, 400)" opacity="0.96"></circle><circle r="33" cx="400" cy="400" stroke-width="9" stroke-dasharray="33 14" stroke-dashoffset="25" transform="rotate(317, 400, 400)" opacity="0.98"></circle><circle r="16.5" cx="400" cy="400" stroke-width="9" stroke-dasharray="34 51" stroke-dashoffset="25" transform="rotate(230, 400, 400)" opacity="1.00"></circle></g></svg>